<svg width="56" height="170" viewBox="0 0 56 170" fill="none" xmlns="http://www.w3.org/2000/svg">
<path d="M51.5083 160.397C54.2129 159.84 55.9539 157.196 55.3968 154.491L46.3187 110.417C45.7616 107.712 43.1175 105.971 40.4128 106.528C37.7082 107.085 35.9672 109.729 36.5243 112.434L44.5937 151.611L5.41612 159.681C2.71147 160.238 0.970524 162.882 1.5276 165.587C2.08468 168.291 4.72883 170.032 7.43348 169.475L51.5083 160.397ZM47.2912 0.665125C29.9954 15.1354 8.89819 40.4834 2.68493 69.5679C-0.449109 84.2385 0.202789 99.9055 7.10817 115.453C14.0001 130.97 26.947 145.979 47.75 159.676L53.2492 151.324C33.6522 138.421 22.1907 124.776 16.2473 111.394C10.3172 98.0424 9.70665 84.5656 12.4643 71.6571C18.0343 45.5833 37.3372 22.0313 53.708 8.33487L47.2912 0.665125Z" fill="black"/>
</svg>
