<svg width="55" height="170" viewBox="0 0 55 170" fill="none" xmlns="http://www.w3.org/2000/svg">
<path d="M3.99172 159.897C1.28707 159.34 -0.453881 156.696 0.103196 153.991L9.18129 109.917C9.73837 107.212 12.3825 105.471 15.0872 106.028C17.7918 106.585 19.5328 109.229 18.9757 111.934L10.9063 151.111L50.0839 159.181C52.7885 159.738 54.5295 162.382 53.9724 165.087C53.4153 167.791 50.7712 169.532 48.0665 168.975L3.99172 159.897ZM8.20878 0.165125C25.5046 14.6354 46.6018 39.9834 52.8151 69.0679C55.9491 83.7385 55.2972 99.4055 48.3918 114.953C41.4999 130.47 28.553 145.479 7.75 159.176L2.2508 150.824C21.8478 137.921 33.3093 124.276 39.2527 110.894C45.1828 97.5424 45.7934 84.0656 43.0357 71.1571C37.4657 45.0833 18.1628 21.5313 1.79201 7.83487L8.20878 0.165125Z" fill="black"/>
</svg>
